<svg id="Слой_1" data-name="Слой 1" xmlns="http://www.w3.org/2000/svg" viewBox="41 66 68 70">
    <defs>
        <style>.cls-1{fill-rule:evenodd;}</style>
    </defs>
    <title>Монтажная область 67</title>
    <path class="cls-1"
          d="M108.19,138.47c.19,6-4.92,9-12.63,9.09s-35.73-.25-43.08-.12-10.34-4-10.49-10c-.48-18.79.14-57.15.16-61.05,0-6.73,2.67-10,8.48-10.07,4.69-.08,42.31-.3,48.32-.27,6.85,0,9.11,4.5,9.22,10.73C108.23,80.24,107.6,120.34,108.19,138.47ZM100.43,130l-5.21.11-.11-4.84,5.31,0,0-15.81-19.06.4-.11-5.21,19.16.1,0-15.85L94.46,89l-.08-4.78,6,0,0-9.37-50.76.35,0,8.74,3.1,0c.41-3.09,1.76-5.27,5.28-5.27,4.5,0,5.47,3.67,5.47,8.11s-.87,8-5.45,8c-3.54,0-4.86-2.19-5.29-5.24l-3.09,0,0,14.85h3.05c.42-3.08,1.76-5.26,5.29-5.26,4.49,0,5.46,3.67,5.47,8.12s-.87,8-5.45,8c-3.4,0-4.76-2-5.24-4.88l-3.1.07,0,14.47,3,0c.42-3.09,1.77-5.26,5.29-5.27,4.5,0,5.47,3.67,5.47,8.12s-.87,8-5.45,8c-3.4,0-4.76-2-5.24-4.89l-3,.07,0,8.89,50.67-.14ZM72.1,119.81c4.49,0,5.46,3.67,5.47,8.12s-.87,8-5.45,8-5.47-3.67-5.47-8.11S67.6,119.81,72.1,119.81Zm.11-4.41c-4.58,0-5.46-3.67-5.47-8.12s1-8,5.45-8,5.46,3.67,5.47,8.12S76.79,115.39,72.21,115.4Zm14,4.46c4.49,0,5.46,3.67,5.47,8.12s-.87,8-5.46,8-5.46-3.67-5.46-8.12S81.68,119.87,86.18,119.86ZM66.88,89.39l-.09-5.32L81,84.15c.37-3.22,1.7-5.52,5.32-5.53,4.5,0,5.47,3.67,5.47,8.12s-.87,8-5.45,8c-3.65,0-5-2.34-5.33-5.54Z"/>
</svg>