<svg width="94" height="68" viewBox="0 0 94 68" fill="none" xmlns="http://www.w3.org/2000/svg">
    <path fill-rule="evenodd" clip-rule="evenodd"
          d="M80.8639 74.1187C79.8039 79.3787 77.8639 81.5087 72.1239 80.3387C66.3839 79.1687 43.6739 75.9987 40.1239 75.2887C38.9267 75.0565 37.7794 74.6166 36.7339 73.9887C31.8439 75.5587 27.4839 76.9387 25.4339 77.5087C19.8539 79.0587 17.6139 76.1987 16.1839 71.0287C14.7539 65.8587 1.05389 21.8087 0.183886 17.8287C-0.686114 13.8487 1.57388 11.0087 6.05388 9.82874C10.5339 8.64874 33.6339 1.63874 38.1139 0.398735C42.5939 -0.841265 44.7739 0.898736 46.3439 4.39874C48.0039 2.69874 50.4639 2.39873 54.0739 3.17873C58.6439 4.17873 82.0739 7.54873 86.6739 8.41873C87.6643 8.56423 88.6156 8.90653 89.4717 9.42547C90.3278 9.9444 91.0713 10.6295 91.6584 11.4403C92.2456 12.2511 92.6644 13.1712 92.8904 14.1465C93.1163 15.1217 93.1447 16.1323 92.9739 17.1187C92.3839 21.0887 81.9339 68.8687 80.8639 74.1187ZM9.98388 15.4587L6.98388 21.6787L13.1339 25.4887L16.3439 19.1787L9.98388 15.4587ZM27.9839 24.9087C27.7739 31.5287 23.8939 40.4787 18.9839 44.0887C23.0539 44.6687 31.1039 48.1687 36.2339 52.4787C37.2339 46.6987 38.4239 39.9187 39.5739 33.4187C35.1558 31.4472 31.2159 28.5443 28.0239 24.9087H27.9839ZM49.2539 8.90874L38.0139 68.0987L74.3339 75.3987L88.4539 15.5087L49.2539 8.90874ZM50.9439 35.6787C52.1939 29.1787 60.0339 28.6787 64.1539 34.5487C70.4539 29.7587 76.6539 33.6587 75.6939 40.3087C74.8939 45.8287 67.0339 49.4687 60.7439 52.1387C55.8639 47.3987 49.9139 41.1987 50.9839 35.6487L50.9439 35.6787ZM55.7239 21.7587C53.9439 20.0487 51.7839 17.7587 52.1739 15.7587C52.6339 13.3987 55.5239 13.2787 56.9639 15.3987C59.2439 13.6587 61.4939 15.0787 61.1439 17.4887C60.8539 19.4787 58.0039 20.7887 55.7239 21.7587ZM69.0039 62.1087C70.7839 63.8087 72.9439 66.0587 72.5539 68.1087C72.1039 70.4587 69.2639 70.6287 67.7639 68.5187C65.4839 70.2487 63.2439 68.8387 63.5839 66.4287C63.8739 64.3987 66.7239 63.0687 69.0039 62.1087Z"
          fill="url(#paint0_linear_35_65)"/>
    <defs>
        <linearGradient id="paint0_linear_35_65" x1="46.5419" y1="0" x2="46.5419" y2="80.6508"
                        gradientUnits="userSpaceOnUse">
            <stop stop-color="#333333"/>
            <stop offset="1" stop-color="#DD1818"/>
        </linearGradient>
    </defs>
</svg>
