<svg width="89" height="77" viewBox="0 0 89 77" fill="none" xmlns="http://www.w3.org/2000/svg">
<path fill-rule="evenodd" clip-rule="evenodd" d="M63.6056 66.77C54.2556 66.77 43.1356 66.77 33.1556 66.7L38.4156 73.2L33.7156 76.57L21.9356 63.35L33.5156 49.04L38.2756 52.58L31.8856 60.12C42.6856 60.01 55.6956 59.84 64.6156 59.84C85.4556 59.84 86.9856 30.23 68.3556 26.98L70.5256 20.05C95.4656 25.98 94.5056 66.77 63.6056 66.77ZM46.9756 20.27L46.2356 14.35L55.6856 13.77C51.4416 10.1483 46.0024 8.23431 40.4256 8.4C23.2756 8.4 16.7756 24.02 19.4856 36.78C3.1056 36.78 3.4856 57.07 16.0256 59.84L16.3756 66.57C-3.6244 64.93 -5.4044 37.29 11.5856 31.16C11.4856 16.5 20.9356 1.73 40.1156 1.73C48.4856 1.73 55.1156 4.53 59.9056 8.89L61.0556 0L66.7356 1.06L65.3156 18.73L46.9756 20.27Z" fill="url(#paint0_linear_35_25)"/>
<defs>
<linearGradient id="paint0_linear_35_25" x1="44.055" y1="0" x2="44.055" y2="76.57" gradientUnits="userSpaceOnUse">
<stop stop-color="#FF00CC"/>
<stop offset="1" stop-color="#333399"/>
</linearGradient>
</defs>
</svg>
