<svg width="101" height="71" viewBox="0 0 101 71" fill="none" xmlns="http://www.w3.org/2000/svg">
<path fill-rule="evenodd" clip-rule="evenodd" d="M70.7764 10.7231C65.7764 6.31315 60.1563 4.88315 56.1963 6.90315C53.6663 8.19315 52.1363 10.8031 51.7963 14.2631L53.4963 14.4531L55.5863 23.0831L89.1664 23.4231C95.4763 23.4231 99.8164 24.9931 99.8164 34.3531C99.8164 43.7131 100.046 57.1231 100.016 62.7031C100.016 69.0731 95.8663 71.3331 90.1264 71.4331C86.9564 71.4831 25.0763 70.8531 8.37635 71.4331C2.83635 71.6031 0.136348 67.6031 0.0263479 60.4331C-0.0836521 53.2631 0.186348 41.9031 0.186348 33.5531C0.186348 25.2031 3.54635 22.7831 10.3763 22.7831C18.0363 22.7831 29.7263 22.8731 42.1563 22.9831L44.3463 13.4231L45.8363 13.5831C46.4063 8.11315 49.1063 3.75315 53.4763 1.53315C59.6563 -1.61685 67.8064 0.163146 74.7163 6.17315C76.2395 7.51448 78.0337 8.51197 79.9769 9.09771C81.9201 9.68346 83.9666 9.84373 85.9773 9.5676C87.988 9.29148 89.9156 8.58544 91.629 7.49754C93.3423 6.40964 94.8012 4.96542 95.9063 3.26314L100.176 7.02314C94.2263 16.6131 79.6563 18.5631 70.7764 10.7231ZM88.0163 61.7231C92.2863 57.4431 85.3464 50.7231 80.8764 55.2031C76.4063 59.6831 82.9464 66.8131 88.0163 61.7531V61.7231ZM73.2863 61.7231C77.5663 57.4431 70.6163 50.7231 66.1463 55.2031C61.6763 59.6831 68.2263 66.8131 73.2863 61.7531V61.7231ZM69.2263 48.8731C73.2963 48.8731 82.2263 48.6831 85.4363 48.7531C97.1863 49.0131 95.5063 32.2031 86.5564 31.9831C77.8064 31.7631 71.8963 31.8931 67.8663 31.9831C57.4263 32.1731 57.9763 48.9431 69.2263 48.9031V48.8731ZM34.7863 46.4231L26.6963 46.7031V39.7031L18.6163 39.8731L18.4563 46.9831L10.3663 47.2631L10.7063 54.4932L18.2863 54.6031L18.0963 62.6031H26.6963V54.7531L34.7863 54.8631V46.4231ZM73.2863 43.6331C68.2263 48.6931 61.7663 41.4931 66.1463 37.1131C70.5263 32.7331 77.5663 39.3431 73.2863 43.6131V43.6331ZM88.0163 43.6331C82.9464 48.6931 76.4964 41.4931 80.8764 37.1131C85.2563 32.7331 92.2863 39.3431 88.0163 43.6131V43.6331Z" fill="url(#paint0_linear_35_37)"/>
<defs>
<linearGradient id="paint0_linear_35_37" x1="50.0882" y1="0" x2="50.0882" y2="71.4383" gradientUnits="userSpaceOnUse">
<stop stop-color="#4776E6"/>
<stop offset="1" stop-color="#8E54E9"/>
</linearGradient>
</defs>
</svg>
