<svg width="65" height="101" viewBox="0 0 65 101" fill="none" xmlns="http://www.w3.org/2000/svg">
<path fill-rule="evenodd" clip-rule="evenodd" d="M55.55 81.76C59.19 94.16 52.55 99.96 52.55 99.96L46.49 81.12C42.2794 82.6755 37.8183 83.4416 33.33 83.38C27.9353 83.458 22.5787 82.4655 17.57 80.46L11.72 100.46C11.72 100.46 5.11 91.46 8.21 81.58C8.66 80.17 9.21 78.24 9.94 75.97C4.80378 72.0461 1.27069 66.3874 0 60.05L6.1 57.1C7.23905 61.112 9.42356 64.7494 12.43 67.64C15.43 57.64 18.89 45.7 20.57 39.96C12.09 31.84 14.89 15.11 27.79 11.91L25.07 0.810001L35.99 0L36.43 11.81C49.95 14.81 52.08 32.81 43.14 40.7C44.48 45.07 47.05 53.5 49.61 61.95L42.26 67.73L34.68 44.32C34.0157 44.3904 33.348 44.4238 32.68 44.42C31.1951 44.422 29.714 44.2712 28.26 43.97L19.91 72.55C24.0845 74.2558 28.561 75.0994 33.07 75.03C47.07 75.03 55.75 66.83 58.35 56.39L64.55 59.19C63.2446 66.1061 59.5492 72.3432 54.11 76.81L55.55 81.76ZM32.38 35.09C41.55 35.09 41.61 20.74 32.22 20.74C22.83 20.74 22.33 35.09 32.38 35.09Z" fill="url(#paint0_linear_35_5)"/>
<defs>
<linearGradient id="paint0_linear_35_5" x1="32.275" y1="0" x2="32.275" y2="100.46" gradientUnits="userSpaceOnUse">
<stop stop-color="#8360C3"/>
<stop offset="1" stop-color="#2EBF91"/>
</linearGradient>
</defs>
</svg>
