<svg id="Слой_1" data-name="Слой 1" xmlns="http://www.w3.org/2000/svg" viewBox="25 42 100 105">
    <defs>
        <style>.cls-1{fill-rule:evenodd;}</style>
    </defs>
    <title>Монтажная область 12</title>
    <path class="cls-1"
          d="M116.35,88.35l1.23,5-22.75,2,13.83-7.17-1.53-5,13.67-7.44,5,10.63ZM79,113.18l4.82,33.26-16.92.79,4.84-34C58.64,110,59.7,87.9,75.4,87.9S93,109.8,79,113.18ZM47.26,71.73,34.49,50.83l15.19-8.06,5,15.83,6-1.38,3.81,29.56L54,69.77ZM40.38,80,58.12,94.4,44,90.12l-3.15,4.45-15-4.16,3.77-11.14,8.2,5.16Z"/>
</svg>