<svg id="Слой_1" data-name="Слой 1" xmlns="http://www.w3.org/2000/svg" viewBox="35 37 80 110">
    <defs>
        <style>.cls-1{fill-rule:evenodd;}</style>
    </defs>
    <title>Монтажная область 36</title>
    <path class="cls-1"
          d="M37,147.11l-1.21-8.19,21.7-9.32L62.77,144l12.94-8.51,12.34,8.87,5.26-14.62,21,9-1.35,8.13Zm60.78-40.37-5.19,3.84-1.88,12.59c-8.23,10.34-20.92,10.58-29.43-.21l-2.75-12-6.8-4.28,1.08-8.85c-6.24-3.54-10.42-8.91-10.42-16.09,0-7.95,4.64-5.81,15.06-3.54l35.41.59c11.31-2.46,14.58-6,14.58,2.17,0,7.54-4.3,13.12-10.69,16.78Zm-32.65-.48.3,11.79,2.89.69c5.28-4,10.07-4,15.65,0l2.18-.6,0-11.6,4.62-5L89.45,90.2,60,89.81l-1.35,11.4ZM57.43,38.1l34.29,0,.63,35.15L56.7,73.11Z"/>
</svg>