<svg width="102" height="85" viewBox="0 0 102 85" fill="none" xmlns="http://www.w3.org/2000/svg">
<path fill-rule="evenodd" clip-rule="evenodd" d="M102.021 62.1478C102.021 69.0678 96.7206 72.1478 87.8606 71.7978C79.0006 71.4478 19.8606 71.6878 11.4206 71.3478C2.98058 71.0078 -0.209416 65.6278 0.0105842 58.8078C0.700584 37.2078 0.500585 15.6378 0.780585 11.1678C1.26058 3.45779 4.50058 -0.102211 11.1806 0.167789C16.5606 0.387789 85.3406 -0.302211 92.2406 0.167789C100.101 0.657789 102.611 5.94779 102.321 13.1078C102.171 17.0078 102.171 41.6278 102.021 62.1478ZM8.10058 7.21778L7.56058 58.9578L95.3506 59.3878L95.7406 7.48779L8.10058 7.21778ZM62.3606 75.7578C62.3606 80.5078 70.2906 82.0678 70.2906 82.0678L69.7106 85.3578L32.7106 84.9178L32.4606 81.6978C32.4606 81.6978 39.9306 80.4578 39.9306 75.6178L62.3606 75.7578Z" fill="url(#paint0_linear_35_21)"/>
<defs>
<linearGradient id="paint0_linear_35_21" x1="51.1714" y1="0" x2="51.1714" y2="85.3578" gradientUnits="userSpaceOnUse">
<stop stop-color="#F12711"/>
<stop offset="1" stop-color="#F5AF19"/>
</linearGradient>
</defs>
</svg>
