<svg width="62" height="83" viewBox="0 0 62 83" fill="none" xmlns="http://www.w3.org/2000/svg">
<path fill-rule="evenodd" clip-rule="evenodd" d="M60.16 14.42C60.16 25.75 61.25 58.81 61.36 68.49C61.45 77.15 57.74 81.92 48.04 82.08C28.12 82.41 0.439999 81.62 0.439999 81.62L0 1.14999C0 1.14999 27.46 0 46.35 0C54.79 0 60.16 3.65 60.16 14.42ZM46.47 69.95V63.81L15.89 62.89L15.76 70.18L46.47 69.95ZM30.32 9.27C2.53 9.27 1.19 51.27 30.79 51.27C57.82 51.31 58 9.27 30.32 9.27ZM40.4 28.42C40.0683 23.2156 38.1409 18.2398 34.88 14.17C42.14 15.99 46.04 22.12 46.68 28.56L40.4 28.42ZM24.4 28.01C24.87 22.54 26.96 17.38 30.4 14.44C33.5361 18.4032 35.348 23.2514 35.58 28.3L24.4 28.01ZM13.63 27.72C14.0257 24.584 15.3387 21.6346 17.4041 19.2419C19.4695 16.8492 22.1954 15.1195 25.24 14.27C22.0382 18.1436 20.0579 22.8802 19.55 27.88L13.63 27.72ZM25.32 46.3C22.1555 45.5169 19.3153 43.7633 17.1975 41.285C15.0796 38.8067 13.7902 35.7279 13.51 32.48L19.51 32.54C19.9542 37.6173 21.9752 42.4285 25.29 46.3H25.32ZM35.5 32.7C35.2258 37.4852 33.3964 42.0499 30.29 45.7C26.7 42.49 24.82 37.64 24.4 32.6L35.5 32.7ZM46.59 32.81C45.76 39.27 41.59 45.21 34.18 46.63C37.5038 42.6839 39.6245 37.8663 40.29 32.75L46.59 32.81Z" fill="url(#paint0_linear_35_13)"/>
<defs>
<linearGradient id="paint0_linear_35_13" x1="30.6808" y1="0" x2="30.6808" y2="82.1606" gradientUnits="userSpaceOnUse">
<stop stop-color="#00B4DB"/>
<stop offset="1" stop-color="#0083B0"/>
</linearGradient>
</defs>
</svg>
