<svg width="90" height="84" viewBox="0 0 90 84" fill="none" xmlns="http://www.w3.org/2000/svg">
<path fill-rule="evenodd" clip-rule="evenodd" d="M79.17 60.98L90.17 60.08V67.08L79.17 67.94V60.98ZM78.97 44.56L90.06 44.81V52.27L79.06 52.81L78.97 44.56ZM78.77 28.67L89.95 28.57V36.12L78.82 36.89L78.77 28.67ZM78.59 13.91L89.85 13.6V21.03L78.64 21.58L78.59 13.91ZM15.86 16.08L74.19 14.97L74.76 67.97L16.47 68.28L15.86 16.08ZM56.65 51.65L56.49 32.58L33.06 32.27L32.59 52L56.65 51.65ZM66.19 11.08L65.55 0.0800018L73.55 0L73.18 10.94L66.19 11.08ZM48.12 0.260002L56.71 0.18L56.99 11.18L48.39 11.32L48.12 0.260002ZM30.81 0.440002L39.55 0.350002L40.05 11.46L31.45 11.6L30.81 0.440002ZM15.94 0.600002L23.38 0.52L23.66 11.72L15.98 11.84L15.94 0.600002ZM0.390001 62.01L11.6 61.46L11.7 68.25L0.440001 68.56L0.390001 62.01ZM0.27 47.39L11.4 46.63L11.5 54.21L0.33 55.08L0.27 47.39ZM0.120001 31.19L11.12 30.65L11.23 38.65L0.140001 39.18L0.120001 31.19ZM0 17.19L11 16.33L11.1 23.33L0.1 24.22L0 17.19ZM24.5 84.19L17.31 84.32L17.02 74.03L24.24 73.86L24.5 84.19ZM41.04 83.9L32.12 83.98L31.52 73.61L40.78 73.4L41.04 83.9ZM57.53 83.6L49.66 83.74L49.19 73.29L57.27 73.1L57.53 83.6ZM73.29 83.32L66.29 83.45L65.68 72.91L73.57 72.73L73.29 83.32Z" fill="url(#paint0_linear_35_61)"/>
<defs>
<linearGradient id="paint0_linear_35_61" x1="45.085" y1="0" x2="45.085" y2="84.32" gradientUnits="userSpaceOnUse">
<stop/>
<stop offset="1" stop-color="#0F9B0F"/>
</linearGradient>
</defs>
</svg>
