<svg id="Слой_1" data-name="Слой 1" xmlns="http://www.w3.org/2000/svg" viewBox="18 73 115 74">
    <defs>
        <style>.cls-1{fill-rule:evenodd;}</style>
    </defs>
    <title>Монтажная область 35</title>
    <path class="cls-1"
          d="M29.52,130.41c0-.09-.69-42.63-.57-47.79.14-6.77,2.1-8.92,8-8.92,4.72,0,68.2.11,74.26.24,6.9.14,7.89,3.39,7.89,9.66,0,4.57-1.24,46.13-1.24,46.13Zm11.26-27.23.07,14.32,7.57-.12L48,112l.09-13.3-7.82.49Zm3.52-16c-5.53,0-5.79,8.41.1,8.41C49.78,95.63,49.81,87.22,44.3,87.22Zm19.62,1.27c-5.43,0-8.79,3.48-8.79,10.51v2.18l-3.46.27L51.54,106l3.58-.06c0,5.91-.06,11.74-.06,11.74l7.82-.11-.46-4.71s0-3.29.06-7l5.84-.1-.13-5.55-5.69.44v-.12c0-4.91.66-5.78,3.52-5.78a4.28,4.28,0,0,1,2,.46l1.87-4.67A8.71,8.71,0,0,0,63.92,88.49Zm30.69-.85L93.46,82.5C87.18,81.2,82.9,85.62,83.82,91c1,5.88-1.4,8.67-6.16,9.58v3.86c5,1.07,7.18,3.83,6.14,9.79-.94,5.34,4.5,10.83,9.38,8.86l1.43-4.8c-8.28-.65-.37-11.86-7.94-15.78C94.66,98.21,85.85,89.49,94.61,87.64ZM74.67,139c10.46,0,10.72-.23,10.72-4.4,21.23.16,41.91.29,46.62.29,0,4.68-1.48,11.68-9.44,11.68-8.59,0-84.51,1.17-93.89,1.17S18,141.48,18,134.07c2.09,0,23.12.15,45.84.33C63.83,138.89,64.21,139,74.67,139Z"/>
</svg>