<svg width="88" height="140" viewBox="0 0 88 140" fill="none" xmlns="http://www.w3.org/2000/svg">
<path fill-rule="evenodd" clip-rule="evenodd" d="M83.68 138.772C83.68 138.772 75.36 142.121 74.2 134.039C73.04 125.956 69.65 100.935 69.65 100.935L66.73 101.118C66.73 101.118 63.8 128.189 63.3 134.64C62.75 141.907 54.52 139.083 54.52 139.083L55.27 89.3102C55.27 89.3102 47.92 82.5907 48.85 74.1646C49.09 72.0178 49.19 70.3218 49.19 70.3218L85.44 62.5183C85.44 62.5183 86.65 70.8049 86.95 73.6494C87.95 82.5156 79.95 88.8916 79.95 88.8916L83.68 138.772ZM41.61 65.1373L42.36 139.073C42.36 139.073 34.13 141.896 33.57 134.629C33.08 128.189 30.15 101.107 30.15 101.107L27.23 100.924C27.23 100.924 23.85 125.838 22.67 134.028C21.49 142.218 13.19 138.761 13.19 138.761L16.98 88.8808C16.98 88.8808 9.05 82.5049 9.98 73.6386C10.65 67.1339 12.07 58.9653 12.07 58.9653C12.07 58.9653 18.79 52.525 33.59 52.525H79.66C79.66 52.525 84.19 53.6628 81.95 58.6218L41.61 65.1373ZM57.83 38.4742C57.83 24.1337 75.51 26.2912 74.02 39.0431C72.58 51.3228 57.83 52.9865 57.83 38.4742ZM20.29 39.0431C18.8 26.2912 36.44 24.1337 36.44 38.4742C36.44 52.9865 21.73 51.3228 20.29 39.0431ZM27.37 18.9384L28.1 0.830275L36.1 2.18275L31.1 19.6254L27.37 18.9384ZM9.65 -1.45606L17.92 -4L22.58 19.4L18.8 21.3214L9.65 -1.45606ZM13.19 26.4737L0 19.2175L4.76 12.1009L14.88 23.1461L13.19 26.4737Z" fill="url(#paint0_linear_35_29)"/>
<defs>
<linearGradient id="paint0_linear_35_29" x1="43.5183" y1="-4" x2="43.5183" y2="139.623" gradientUnits="userSpaceOnUse">
<stop stop-color="#000046"/>
<stop offset="1" stop-color="#1CB5E0"/>
</linearGradient>
</defs>
</svg>
