<svg id="Слой_1" data-name="Слой 1" xmlns="http://www.w3.org/2000/svg" viewBox="31 56 92 91">
    <defs>
        <style>.cls-1{fill-rule:evenodd;}</style>
    </defs>
    <title>Роборука</title>
    <path class="cls-1"
          d="M119.91,74.49l-9.58-2.6-8.39,8.38c-.09,4.74-3.72,9.3-10.35,8.53C87.9,88.38,72,86.64,68,86.18,54.85,84.66,57,66.45,71.08,68.07c3.43.4,17.53,2.15,25.86,3.17l12.41-8,13,6ZM68.39,73.23c-4.88,0-5.12,7.38.08,7.38C73.22,80.61,73.25,73.23,68.39,73.23ZM64.06,63.1c-9.23,0-11.16,8.8-13.19,18.74,1.58-1.58,3.12-3.11,4.49-4.49.26,6.24,4.54,12.25,13.14,12.53L57.25,101.29c-1.65-1.6-3.89-3.8-6.57-6.48a13.05,13.05,0,0,0-8.53-4H42v0H42l.1-.09c3-11.32,2.41-34.19,22.49-34.19,6.9,0,12.68,2.57,18.22,7.68l-10.36.72A20.41,20.41,0,0,0,64.06,63.1ZM99.58,94.43,106,87.94l2.24,4.5,9.7-.06,1.19,6.1-13.79,1.29ZM48.69,98.66C52,101.88,73,123,75.59,125.54a11.39,11.39,0,0,1,1,1.11l9.14-2.29,21.49,23h-64s-1.48-12.13,11-15.15l1.82-.44L35.08,111C25.69,101.74,38.61,88.72,48.69,98.66Zm-7.3,1.57c-4.88,0-5.12,7.38.08,7.38C46.22,107.61,46.25,100.23,41.39,100.23Z"/>
</svg>