<svg width="92" height="80" viewBox="0 0 92 80" fill="none" xmlns="http://www.w3.org/2000/svg">
<path fill-rule="evenodd" clip-rule="evenodd" d="M0.59 56.19C0.59 50.32 3.19 48.84 8.15 48.89C23.33 49.04 74.46 49.37 86.53 49.49C89.47 49.49 91.74 52.12 91.74 56.92V80.06L0 79.48C0 79.48 0.59 62.06 0.59 56.19ZM30.59 69.04C35.52 69.04 35.59 61.32 30.5 61.32C25.41 61.32 25.16 69.04 30.57 69.04H30.59ZM15.04 69.04C19.97 69.04 20.04 61.32 14.95 61.32C9.86 61.32 9.61 69.04 15.02 69.04H15.04ZM71.27 26.67L72.87 12.91L72.81 0L79.2 0.329994L79.75 12.62L81.4 26.75V43.53H71.4L71.27 26.67ZM9.27 26.78L10.78 12.91L10.71 0.529999L17.11 0.329994L17.66 12.62L19.31 26.75V43.53L9.97 44.17L9.27 26.78Z" fill="url(#paint0_linear_35_45)"/>
<defs>
<linearGradient id="paint0_linear_35_45" x1="45.87" y1="0" x2="45.87" y2="80.06" gradientUnits="userSpaceOnUse">
<stop stop-color="#8E2DE2"/>
<stop offset="1" stop-color="#4A00E0"/>
</linearGradient>
</defs>
</svg>
