<svg id="Слой_1" data-name="Слой 1" xmlns="http://www.w3.org/2000/svg" xmlns:xlink="http://www.w3.org/1999/xlink"
     viewBox="25 60 95 95">
    <defs>
        <style>.cls-1{fill-rule:evenodd;fill:url(#linear-gradient);}</style>
        <linearGradient id="linear-gradient" x1="106.88" y1="138.44" x2="43.97" y2="75.53"
                        gradientUnits="userSpaceOnUse">
            <stop offset="0" stop-color="#b428b4"/>
            <stop offset="1" stop-color="#f0288c"/>
        </linearGradient>
    </defs>
    <title>Монтажная область 34</title>
    <path class="cls-1"
          d="M112.54,110.26l3.33,5.44c-4.79,5.7-14.21,8.83-26.72,2.4L87,120c8.23,11.7,6.31,21,1.31,27.3l-6.19-2.93L78,149.21c-6.92-2.81-12.82-10.83-10.52-24.78l-2.63-1.13c-8.55,11.26-18,12.29-25.41,9.48l.86-6.79-5.89-2.45c.53-7.38,6.24-15.39,19.94-17.6l0-3.14c-12.82-4.7-16.56-13.19-16.2-21l6.73-1.27.5-6.37C52.84,72.31,62.71,75.58,69,89.28l2.2-.7c-.08-14.94,7.09-21.63,15-23.79l3.29,6,6.21-1.49c4.07,6.55,4,17-7.06,27.19l1,2c14.4-4.9,23.07-.09,27.6,6.79Zm-32.18-3.42,9.09-2.12-1-3.63-9,1.9,7.66-15-3.77-2.24-7.87,15.15,1-10.08-3.89.24L71,100.83l-9.8-11.61L58,92.39l9.78,11.84-9.18-4.07L57,103.88l8.86,3.42-14,4.93,1.66,4.47,14.33-4.89-6.23,6.06L64,121l7.41-5.78L73.25,129l5.16-1.08-2.17-13.77,5.07,7,3.45-3.1-5.23-7L94,113.84l.65-4ZM96.28,93.09a34.37,34.37,0,0,0,6-11.06A83,83,0,0,1,113.7,83,76.14,76.14,0,0,1,109,93.35,32.66,32.66,0,0,0,96.28,93.09ZM59.54,71.86A81.77,81.77,0,0,1,64,61.19a75.24,75.24,0,0,1,8.31,7.53,33.47,33.47,0,0,0-4,12.09A33.63,33.63,0,0,0,59.54,71.86ZM47.35,103.63a32,32,0,0,0-10.91,6,83.92,83.92,0,0,1-8.81-7.55,73.59,73.59,0,0,1,10.16-5.77A32.67,32.67,0,0,0,47.35,103.63ZM65.18,142.7a82.08,82.08,0,0,1-10.12,6.21,72.8,72.8,0,0,1-2.34-11.38,30.76,30.76,0,0,0,10.22-6.44A32,32,0,0,0,65.18,142.7Zm40.55-16.83a82.35,82.35,0,0,1,2.63,11.1,75.2,75.2,0,0,1-11.53-1.29A31.28,31.28,0,0,0,93.68,124,33.21,33.21,0,0,0,105.73,125.87Z"/>
</svg>
