<svg id="Слой_1" data-name="Слой 1" xmlns="http://www.w3.org/2000/svg" viewBox="38 60 76 78">
    <defs>
        <style>.cls-1{fill-rule:evenodd;}</style>
    </defs>
    <title>Монтажная область 75</title>
    <path class="cls-1"
          d="M111.52,81c-.51,1.91-6.49,25.31-11.32,43.94l-5.91,4.8,3,6.44c-.8,3-1.49,5.68-2,7.69-1.55,5.78-5.21,7.19-12.32,5.28-3.19-.85-9.07-2.46-14.76-4-7.36,0-16.68-.11-20.88-.11-6.76,0-9.45-3.28-9.45-9,0-15.32.38-58.63.38-61.81,0-6.25,2.47-9.1,7.83-9.1,2.3,0,11.7-.07,19.88-.12,1.79-3.6,4.62-4.74,8.76-3.63,3.7,1,26.34,6.88,31.07,8.14C111.9,71.1,113.11,75.05,111.52,81ZM86.28,131.46c4.51,1.21,6.42-5.79,1.8-7S81.34,130.14,86.28,131.46Zm-12-3.24c4.51,1.21,6.41-5.79,1.8-7S69.35,126.9,74.29,128.22Zm-29-56.48L44.2,137.79h4.91c-1.27-1.93-1.4-4.41-.61-7.36.56-2.08,1.26-4.75,2.06-7.79l4.75-3.34-2.3-6C56.9,98.44,61.66,80.07,63.75,72Zm17,53.31c4.5,1.21,6.41-5.79,1.79-7S57.41,123.73,62.35,125.05Zm39.37-46.3c-1.63-1.79-7.47.66-11.48,4.32-.95.86-2.21,2.1-3.61,3.53L71.25,80.48l-3.74,6.3L80,93.58c-1.87,2-3.62,3.91-5,5.37L69.9,97.42l-4.52,4L73.26,105l3.46,8.54,4.11-3.77-1.28-5.87,5.9-4.6L91.79,112l5.64-2.63-4.7-15.79c1.73-1.4,3.18-2.61,4.06-3.42C100.86,86.4,103.34,80.53,101.72,78.75Z"/>
</svg>