<svg id="Слой_1" data-name="Слой 1" xmlns="http://www.w3.org/2000/svg" viewBox="36 60 78 80">
    <defs>
        <style>.cls-1{fill-rule:evenodd;}</style>
    </defs>
    <title>Монтажная область 28</title>
    <path class="cls-1"
          d="M100.07,90.61a91.39,91.39,0,0,0,5.61-9.87S91.14,74.17,85,70.88c-2.46,8.61-7,14.17-11.53,19.31L65,90.43c6-6.89,12.83-14,17.19-29.48,0,0,23,12.41,31.12,16.94-.85,5.14-4.41,11.92-8.09,16.79ZM64.47,70.49c.24,7.81-1.8,14.15-4.22,20.06l-6.86.19A57.22,57.22,0,0,0,59.06,63l16.11,2-2.54,6S65.22,70.62,64.47,70.49ZM45.2,79a37.59,37.59,0,0,1,1,11.91L40,91.11a58.13,58.13,0,0,0-1.84-18.69l15.5-1.28-.76,6.67S46,79,45.2,79Zm57.18,25.53c0,.57,0,1.34,0,2.27-5.5.18-13.14.4-20.83.5-4.76.07-8.73,4.52-8.73,9.19,0,1.4,0,5.84,0,6.75,0,6.79,4.11,11.59,10.92,11.59,6,0,12.84.06,18.14.13,0,2.52-.07,4.43-.07,5.28,0,3.89-2.5,6.79-6.46,6.84-12.09.16-57.92.66-57.92.66l-.69-51.36s47.69-.85,57.68-.85C100.09,95.56,102.38,98.9,102.38,104.56Zm-24,17.59c0-.64,0-2.75,0-3.74,0-3.31,2.12-5.78,5.5-5.82,10.28-.14,21.78.06,21.78.06l.32,16.42s-12.32.74-20.81.74C80.32,129.81,78.38,127,78.38,122.15Z"/>
</svg>