<svg id="Слой_1" data-name="Слой 1" xmlns="http://www.w3.org/2000/svg" viewBox="20 59 106 83">
    <defs>
        <style>.cls-1{fill-rule:evenodd;}</style>
    </defs>
    <title>Монтажная область 14</title>
    <path class="cls-1"
          d="M103.25,151.53l-34.63-9.16-13,8.8L20.89,142l.46-33.3L43.61,94.53l5.83,1.56.69-26.62,29.72-10,25,14.37.35,24.83,19,5.06,1,33.7Zm-4.15-8.87L99,121.36l-23.14-5.48-.16,20.7Zm-35-32.15-5.73-3.36-10.81,7.1,6.95,1.93ZM27.86,136.22l25.56,7L53.27,122l-8.73-2.23L44.12,130,36,127.6l.52-9.9L28,115.53ZM51.21,103l-6-1.4-13.92,8.14,7.85,2.19L52,103.44Zm4.62-5.07,17.3,10.4V87.86l-5.95-3v9.5l-6.45-3.92-.14-8.89L55.87,79.2ZM79.06,65.6l-21,7.21L62.58,75l20.87-7Zm12.72,6.88L70.88,79l5,2.43,20.66-6.35Zm22.47,37.39-11.09-2.94-9.26,2.93L108.7,113l.56,13,5.13-3.24Z"/>
</svg>