<svg id="Слой_1" data-name="Слой 1" xmlns="http://www.w3.org/2000/svg" viewBox="10 27 130 121">
    <defs>
        <style>.cls-1{fill-rule:evenodd;}</style>
    </defs>
    <title>Монтажная область 21</title>
    <path class="cls-1"
          d="M138.26,56.48l-2.59-.28L134.2,68.14l-6.62-.52-.4,3.27-10.65-1,2.12-18.53c-28.71-2.59-59.34-1.9-87.2.21l2.09,18.32-10.65,1-.4-3.27-6.62.52L14.4,56.23l-2.33.32-1.56-9.84,2.68-.39L11.54,32.87l6.65-.25-.5-4.12,11-.64,2,17.25c28.8-2.29,60.2-2.94,88.66.07l2-17.32,11,.65-.51,4.11,6.66.26-1.64,13.37,2.6.26ZM65.79,62.41c0-12.63,18.21-10.39,16.8.85C81.24,74.07,65.79,75.2,65.79,62.41Zm34.43-9,6.92.67c-3,13.4-10.45,25.7-19.8,32.51l-4.57,8.16-19.26.89-4.82-9.53c-9.08-6.89-14.75-17.24-17.75-30.64l7.22-1.3C55.27,83,92.35,83.4,100.22,53.42ZM83.66,102.87,95.77,147s-6.83,4.05-9.53-2.19c-2.32-5.36-10.9-25.4-10.9-25.4l-3.93-.17S63.13,137.7,60,144.49s-9.84,2.92-9.84,2.92L63,103Z"/>
</svg>