<svg id="Слой_1" data-name="Слой 1" xmlns="http://www.w3.org/2000/svg" xmlns:xlink="http://www.w3.org/1999/xlink"
     viewBox="25 55 100 100">
    <defs>
        <style>.cls-1{fill-rule:evenodd;fill:url(#linear-gradient);}</style>
        <linearGradient id="linear-gradient" x1="107.85" y1="138.16" x2="41.91" y2="72.23"
                        gradientUnits="userSpaceOnUse">
            <stop offset="0" stop-color="#0096ff"/>
            <stop offset="1" stop-color="#00c8ff"/>
        </linearGradient>
    </defs>
    <title>Снежинка</title>
    <path class="cls-1"
          d="M123.15,121.6l-13.32-3.89L117,127.77l-6.15,3.13-6.65-14.84-9.43-2.74,4,15.13L83,124.89l2.82,9.28,16.24,6.94-3.16,6-11.4-7.38,4,13.31L85,155.17l-3.45-13.89-5.46,11.94-6.16-3.67,10.24-13.83-2.36-9.51L66.63,137.72l-5.18-14.91-6.36,6.71,2.06,17.09-6.75.26.66-13.08-9.22,9.74-5.17-4.64,10.55-10-13.57,1.28.1-7.16,17.53,2,6.65-6.34-16.35-4.36L52.43,102.2l-7.82-1.86-14,10.5L27,105.12,39,99,25.19,95.73l1.44-6.79,14.2,4.13L33.14,82.25l6.25-3.5,6.92,15.91,7.34,2.14-3.8-15.49L66.59,86.1l-3.08-9.86L47.85,69.72l2.87-6.3,11,7.1-4.07-13L65,55.24l3.29,13.7L73.6,57.29l5.78,3.76L69.62,74.57,72,84.46,83.22,71.33,88,87.93l5.89-6.48L91.77,65l6.9-.67L98,76.91l9.52-10.47,5.67,5.19L102,82.36l13.38-1.26L115,88,98,86.24,91.9,92.09,106,96.39,96,107.74l9.29,2.05,13.79-10.53,4,5.64-12,6.16,13.75,3ZM81.23,119l10,1.89-2.07-9.18L78,108.44Zm-30.29-7.6,11.29,3.14,8.4-8-12.57-3ZM68.41,91.9l-11.1-2.45,2.15,9L71.58,102Zm-2.57,26.27,2.65,9.59,7.81-7.48-2.59-10.43ZM81,82.23,73.4,90.29,76,101.13l7.94-8.73ZM96.72,98.58,87.8,96l-8.39,8,10.67,2.36Z"/>
</svg>